<svg xmlns="http://www.w3.org/2000/svg" viewBox="0 0 605 100">
    <g id="paths">
        <path d="M51.5 0 
                H31.4 V-80.3 
                H1.3 V-100.4 
                H81.6 V-80.3 
                H51.5 
                V0 Z
                ">
            <animate fill="freeze" animationDelay="-0.5s" attributeName="d" dur="1s" end=".begin + 0.1s" repeatCount="infinite" to="
        M81.6 0 
        H0
        V-10
        H0
        V-20
        H81.6 
        V-10 
        H81.6 
        V0 
        Z"/>
        </path>
        <path d="M107 0 
                H87.9 
                V-104.8 
                H107 
                V-71.7 
                Q110.4 -74.3 114 -75.3 
                T121.5 -76.4 
                Q128.4 -76.4 134.5 -73.9 
                T145 -66.6 
                T152.2 -55.9 
                T154.8 -42.8 
                V0 
                H135.6 
                V-42.8 
                H135.7 
                Q135.7 -45.8 134.6 -48.4 
                T131.5 -53 
                T127 -56.1 
                T121.5 -57.2 
                Q118.4 -57.2 115.8 -56.1 
                T111.2 -53 
                T108.1 -48.4 
                T107 -42.8 
                V0 
                Z "/>
        <path d="M243.3 -38.2 
                Q243.3 -29.8 240.3 -22.5 
                T232.1 -10 
                T220 -1.7 
                T205 1.4 
                Q197.1 1.4 190.2 -1.6 
                T178 -9.9 T169.8 -22.5 
                T166.7 -38.2 
                Q166.7 -46.7 169.8 -54 
                T177.9 -66.5 
                T190.1 -74.8 
                T205 -77.8 
                Q213 -77.8 219.9 -75 
                T232.1 -67 T240.3 -54.5 
                T243.3 -38.2 
                Z 
                M224.1 -38.2 
                Q224.1 -42.8 222.6 -46.5 
                T218.5 -52.9 
                T212.5 -57.1 
                T205 -58.5 
                Q201.1 -58.5 197.7 -57.1 
                T191.7 -53 T187.6 -46.6 
                T186.1 -38.2 Q186.1 -33.8 187.6 -30.1 
                T191.6 -23.7 
                T197.6 -19.4 
                T205 -17.8 Q209 -17.8 212.4 -19.3 
                T218.5 -23.4 T222.5 -29.8 
                T224.1 -38.2
                Z "/>
        <path d="M270.3 0 H251.2 V-75 H255.9 L262.2 -66.1 Q266.8 -70.3 272.7 -72.5 T284.8 -74.8 H301.7 V-55.8 H284.8 Q281.8 -55.8 279.2 -54.7 T274.5 -51.6 T271.5 -47 T270.3 -41.3 V0 Z " transform=""/>
        <path d="M329.9 0 H310.8 V-75 H315.4 L321.7 -67.7 Q326.3 -71.9 332.2 -74.1 T344.4 -76.4 Q351.3 -76.4 357.4 -73.9 T368 -66.6 T375.1 -55.9 T377.8 -42.8 V0 H358.7 V-42.8 Q358.7 -45.8 357.6 -48.4 T354.5 -53 T349.9 -56.1 T344.4 -57.2 Q341.4 -57.2 338.7 -56.1 T334.1 -53 T331 -48.4 T329.9 -42.8 V0 Z " transform=""/>
        <path d="M425.2 0 Q418.3 0 412.2 -2.6 T401.5 -9.8 T394.3 -20.5 T391.7 -33.5 V-55.8 H382.3 V-74.8 H391.7 V-104.8 H410.7 V-74.8 H439.7 V-55.8 H410.7 V-33.5 Q410.7 -30.5 411.8 -27.9 T414.9 -23.3 T419.5 -20.2 T425.2 -19 H439.7 V0 H425.2 Z " transform=""/>
        <path d="M529.1 -38.2 Q529.1 -29.8 526.1 -22.5 T517.9 -10 T505.8 -1.7 T490.8 1.4 Q482.9 1.4 475.9 -1.6 T463.8 -9.9 T455.5 -22.5 T452.5 -38.2 Q452.5 -46.7 455.5 -54 T463.7 -66.5 T475.9 -74.8 T490.8 -77.8 Q498.8 -77.8 505.7 -75 T517.9 -67 T526.1 -54.5 T529.1 -38.2 Z M509.8 -38.2 Q509.8 -42.8 508.3 -46.5 T504.2 -52.9 T498.2 -57.1 T490.8 -58.5 Q486.9 -58.5 483.4 -57.1 T477.4 -53 T473.3 -46.6 T471.9 -38.2 Q471.9 -33.8 473.3 -30.1 T477.3 -23.7 T483.4 -19.4 T490.8 -17.8 Q494.7 -17.8 498.1 -19.3 T504.2 -23.4 T508.3 -29.8 T509.8 -38.2 Z " transform=""/>
        <path d="M556.3 0 H537.2 V-75 H541.8 L548.1 -67.7 Q552.7 -71.9 558.5 -74.1 T570.8 -76.4 Q577.6 -76.4 583.7 -73.9 T594.4 -66.6 T601.5 -55.9 T604.2 -42.8 V0 H585.1 V-42.8 Q585.1 -45.8 583.9 -48.4 T580.9 -53 T576.3 -56.1 T570.8 -57.2 Q567.8 -57.2 565.1 -56.1 T560.5 -53 T557.4 -48.4 T556.3 -42.8 V0 Z " transform=""/>
    </g>
</svg>
