<svg xmlns="http://www.w3.org/2000/svg" id="paths" fill="none" stroke="black" stroke-width="10px" preserveAspectRatio="none" shape-rendering="geometricPrecision" viewBox="0 0 610 110">
    <path d="M51.5 104
            H31.4 
            V23.7 
            H1.3 
            V3.6 
            H81.6 
            V23.7 
            H51.5
            Z ">
        <animate fill="freeze" attributeName="d" dur="1s" end="" restart="always" to="
                M51.5 104
                H31.4 
                V104
                H0 
                V84
                H75.5 
                V104 
                H51.5  
                Z 
                "/>
    </path>
    <path d="M107 104
            H87.9 
            V-0.8 
            H107 
            V32.3 
            C113 25 153 23 154.8 61.2
            V104
            H135.6 
            V61.2
            C135 42 108 42 107 61.2 
            Z ">
        <animate fill="freeze" attributeName="d" dur="1s" end="" restart="always" to="
            M107 104 H75.5 V84 H107 V84 
            C113 84 153 84 151 84
            V104 H135.6 V104 
            C135 104 108 104 107 104 
            Z 
        "/>
    </path>
    <path d="
        M205 104
	    Q169.7 102.4 166.7 65.8
        Q169.7 29.2 205 26.5
        Q240.3 29.2 243.3 65.8
        Q240.3 102.4 205 104
        Z
        M205 45.5 
        Q188.1 47.5 186.1 65.8
        Q188.1 84.2 205 86.2
        Q222.1 86.2 224.1 65.8
        Q222.1 47.5 205 45.5 
        Z">
        <animate fill="freeze" attributeName="d" begin="0.3s" dur="0.7s" end="" restart="always" to="
        M151 104
	    Q151 84 151 84
        Q205 84 205 84
        Q226.5 84 226.5 84
        Q226.5 104 226.5 104
        Z
        M205 94
        Q188.1 94 186.1 94
        Q205 94 205 94
        Q224.1 94 224.1 94
        Q205 94 205 94 
        Z
        "/>
    </path>
    <path d="M270.3 104
         H251.2 
         V29 
         H255.9 
         L262.2 37.9 
         Q266.8 33.7 272.7 31.5 
         T284.8 29.2 H301.7 
         V48.2 H284.8 
         Q281.8 48.2  
         279.2 49.3 
         T274.5 52.4 
         T271.5 57 
         T270.3 62.7 
         V104 Z ">
        <animate fill="freeze" attributeName="d" begin="0.3s" dur="0.7s" end="" restart="always" to="
         M302 104
         H226.5 
         V84 
         H255.9 
         L262.2 84 
         Q266.8 84 272.7 84
         T284.8 84
        H302 
         V104
        H284.8 
         Q281.8 104 279.2 104
         T274.5 104 
         T271.5 104 
         T270.3 104
         V104 Z"/>
    </path>
    <path d="M329.9 104 
            H310.8 V29 
            H315.4 
            L321.7 36.3 
            C335.9 25 375.9 23 377.8 61.2
            V104
            H358.7
            V61.2
            C357.9 42 330.9 42 329.9 61.2 
            Z">
        <animate fill="freeze" attributeName="d" begin="0.3s" dur="0.7s" end="" restart="always" to="
            M329.9 104 
            H302
            V84 
            H315.4 
            L321.7 84 
            C335.9 84 375.9 84 377.8 84
            V104
            H358.7
            V104
            C357.9 104 330.9 104 329.9 104 
            Z
        "/>
    </path>
    <path d="
            M425.2 104
            Q397 104 391.7 70.5
            V48.2 
            H382.3 
            V29.2 
            H391.7 
            V0 H410.7 
            V29.2 H439.7 
            V48.2 H410.7 
            V70.5 
            Q408.7 80.5 425.2 85
            H439.7 
            V104 
            H425.2 Z ">
        <animate fill="freeze" attributeName="d" dur="0.7s" end="" restart="always" to="
            M425.2 104
            Q397 104 391.7 104
            V104 
            H377.8 
            V84 
            H391.7 
            V84
            H410.7 
            V84 
            H453 
            V104 
            H410.7 
            V104 
            Q408.7 104 453 104
            H453 
            V104 
            H453 
            Z 
        "/>
    </path>
    <path d="
        M490 104
	    Q529 102 529 65
        Q529 29 490 26
        Q454 29 453 65
        Q454 102 490 104
        Z
        M490 45
        Q510 47 510 65
        Q510 84 490 86
        Q474 86 472 65
        Q474 47 490 45 
        Z">
        <animate fill="freeze" attributeName="d" begin="0.3s" dur="0.7s" end="" restart="always" to="
            M528.5 104
            Q528.5 84 528.5 84
            Q490 84 490 84
            Q453 84 453 84
            Q453 104 453 104
            Z
            M528.5 94
            Q 528.5 94 528.5 94
            Q490 94 490 94
            Q 453 94 453 94
            Q490 94 490 94 
            Z
        "/>
    </path>
    <path d="
            M556.3 104 
            H537.2 
            V29 
            H541.8 
            L548.1 36.3 
            C562.2 22 601.3 23 604 61.2
            V104
            H585.1
            V61.2
            C584.3 42 556.3 42 556.3 61.2 
            Z ">
        <animate fill="freeze" attributeName="d" begin="0.3s" dur="0.7s" end="" restart="always" to="
            M556.3 104 
            H528.5 
            V84
            H541.8 
            L548.1 84 
            C630 84 630 84 604 104
            V104
            H585.1
            V104
            C584.3 104 556.3 104 556.3 104
            Z 
            604
        "/>
    </path>
</svg>
