<svg xmlns="http://www.w3.org/2000/svg" viewBox="0 0 100 17.58">
	<title>Thornton</title>
	<path d="M8,17 H5 V4 H0 V0 H13 V4 h-5 Z"/>
	<path d="M 17,17 H14 V0 h3 V5 a3, 3, 0, 0, 1, 1.17-.61,4.24,4.24,0,0,1,1.22-.18,5.38,5.38,0,0,1,2.16.44,5.33,5.33,0,0,1,1.75,1.19,5.6,5.6,0,0,1,1.18,1.77,5.45,5.45,0,0,1,.44,2.16 v7.1 H22.61 v-7.1 h0 a2.4,2.4,0,0,0-.19-.92,2.31,2.31,0,0,0-.51-.76,2.62,2.62,0,0,0-.75-.51,2.36,2.36,0,0,0-.92-.18,2.41,2.41,0,0,0-.93.18,2.58,2.58,0,0,0-.77.51,2.31,2.31,0,0,0-.51.76,2.39,2.39,0,0,0-.18.92 Z"/>
	<path d="M40,11a6.72,6.72,0,0,1-.5,2.59,6.42,6.42,0,0,1-1.36,2.07,6.11,6.11,0,0,1-2,1.38,6.21,6.21,0,0,1-4.93,0,6.26,6.26,0,0,1-2-1.38,6.42,6.42,0,0,1-1.36-2.07,6.72,6.72,0,0,1-.5-2.59,6.87,6.87,0,0,1,.5-2.62,6.58,6.58,0,0,1,1.36-2.08,6.39,6.39,0,0,1,2-1.37,6.18,6.18,0,0,1,2.46-.5,6.54,6.54,0,0,1,2.47.47,6,6,0,0,1,2,1.33,6.36,6.36,0,0,1,1.36,2.08A7,7,0,0,1,40,11Zm-3.19,0a3.57,3.57,0,0,0-.25-1.38,3.11,3.11,0,0,0-.68-1.07,2.74,2.74,0,0,0-1-.68,3.22,3.22,0,0,0-2.44,0,2.74,2.74,0,0,0-1,.68,3.22,3.22,0,0,0-.66,1.07A3.57,3.57,0,0,0,30.57,11a3.42,3.42,0,0,0,.25,1.33,3.32,3.32,0,0,0,.66,1.07,3.09,3.09,0,0,0,1,.71,2.82,2.82,0,0,0,1.22.26,3.12,3.12,0,0,0,1.22-.24,3,3,0,0,0,1-.68,3.11,3.11,0,0,0,.68-1.07A3.64,3.64,0,0,0,36.85,11Z"/>
	<path d="M45,17.35H41.79V4.94h.76l1,1.47A5.64,5.64,0,0,1,47.35,5h2.79V8.11H47.35a2.46,2.46,0,0,0-1.71.7,2.54,2.54,0,0,0-.51.76,2.46,2.46,0,0,0-.18.94Z"/>
	<path d="M54.77,17.35H51.61V4.94h.76l1.05,1.2a5.59,5.59,0,0,1,3.75-1.45,5.32,5.32,0,0,1,2.14.44,5.52,5.52,0,0,1,1.77,1.19,5.77,5.77,0,0,1,1.18,1.77,5.45,5.45,0,0,1,.44,2.16v7.1H59.53v-7.1a2.39,2.39,0,0,0-.18-.92,2.31,2.31,0,0,0-.51-.76,2.76,2.76,0,0,0-.75-.51,2.36,2.36,0,0,0-.92-.18,2.5,2.5,0,0,0-.94.18,2.54,2.54,0,0,0-.76.51,2.31,2.31,0,0,0-.51.76,2.23,2.23,0,0,0-.19.92Z"/>
	<path d="M71,17.35a5.37,5.37,0,0,1-2.15-.44,5.55,5.55,0,0,1-3-3,5.37,5.37,0,0,1-.44-2.15V8.11H63.91V5h1.54V0h3.16V5H73.4V8.11H68.61V11.8a2.41,2.41,0,0,0,.18.93,2.31,2.31,0,0,0,.51.76,2.48,2.48,0,0,0,.76.51,2.32,2.32,0,0,0,.94.19h2.4v3.16Z"/>
	<path d="M87.16,11a6.71,6.71,0,0,1-.49,2.59,6.59,6.59,0,0,1-1.36,2.07,6.11,6.11,0,0,1-2,1.38,6,6,0,0,1-2.47.51,6,6,0,0,1-2.46-.51A6.35,6.35,0,0,1,75,13.62a6.72,6.72,0,0,1-.5-2.59A6.87,6.87,0,0,1,75,8.41,6.26,6.26,0,0,1,78.37,5a6.11,6.11,0,0,1,2.46-.5,6.54,6.54,0,0,1,2.47.47,6,6,0,0,1,2,1.33,6.52,6.52,0,0,1,1.36,2.08A7,7,0,0,1,87.16,11ZM84,11a3.57,3.57,0,0,0-.25-1.38,3.26,3.26,0,0,0-.68-1.07,2.74,2.74,0,0,0-1-.68,3.12,3.12,0,0,0-1.22-.24,3.17,3.17,0,0,0-1.23.24,2.7,2.7,0,0,0-1,.68,3.24,3.24,0,0,0-.67,1.07A3.77,3.77,0,0,0,77.7,11a3.61,3.61,0,0,0,.24,1.33,3.35,3.35,0,0,0,.67,1.07,3,3,0,0,0,1,.71,2.86,2.86,0,0,0,1.23.26,3.12,3.12,0,0,0,1.22-.24,3,3,0,0,0,1-.68,3.26,3.26,0,0,0,.68-1.07A3.64,3.64,0,0,0,84,11Z"/>
	<path d="M92.08,17.35 H88.91 V4.94 h.77 l1,1.2 a5.63,5.63,0,0,1,1.73-1.07,5.57,5.57,0,0,1,2-.38,5.37,5.37,0,0,1,2.15.44,5.47,5.47,0,0,1,1.76,1.19,5.8,5.8,0,0,1,1.19,1.77,5.44,5.44,0,0,1,.43,2.16v7.1H96.84v-7.1a2.23,2.23,0,0,0-.19-.92,2.31,2.31,0,0,0-.51-.76,2.49,2.49,0,0,0-.75-.51,2.36,2.36,0,0,0-.92-.18,2.41,2.41,0,0,0-.93.18,2.58,2.58,0,0,0-.77.51,2.31,2.31,0,0,0-.51.76,2.39,2.39,0,0,0-.18.92Z"/>
</svg>