<svg xmlns="http://www.w3.org/2000/svg" id="paths" preserveAspectRatio="none" viewBox="0 0 604 105">
    <path d="M51.5 104
            H31.4 
            V23.7 
            H1.3 
            V3.6 
            H81.6 
            V23.7 
            H51.5
            V104 Z ">
        <animate fill="freeze" attributeName="d" dur="1s" end="" restart="always" to="
        M75.5 104 
        H0
        V94
        H0 
        V84
        H75.5 
        V94 
        H75.5 
        V104 Z "/>
    </path>
    <path d="M107 104
            H87.9 
            V-0.8 
            H107 
            V32.3 
            Q110.4 29.7 114 28.7 
            T121.5 27.6 
            Q128.4 27.6  134.5 30.1 
            T145 37.4 T152.2 48.1 
            T154.8 61.2 
            V104 H135.6 
            V61.2 H135.7 
            Q135.7 58.2 134.6 55.6 
            T131.5 51 T127 47.9 
            T121.5 46.8 
            Q118.4 46.8 115.8 47.9 
            T111.2 51 
            T108.1 55.6 
            T107 61.2 
            V104 Z ">
        <animate fill="freeze" attributeName="d" dur="1s" end="" restart="always" to="
            M107 104
            H75.5 
            V84 
            H107 
            V84
            Q110.4 84 114 84
            T121.5 84 
            Q128.4 84 134.5 84 
            T145 84 
            T152.2 84
            T154.8 84 
            V104 
            H135.6 
            V104 
            H135.7 
            Q135.7 104 134.6 104 
            T131.5 104 
            T127 104 
            T121.5 104
            Q118.4 104 115.8 104 
            T111.2 104 
            T108.1 104 
            T107 104 
            V104 Z "/>
    </path>
    <path d="M243.3 65.8 Q243.3 74.2  240.3 81.5 T232.1 94 T220 102.3 T205 105.4 Q197.1 105.4  190.2 102.4 T178 94.1 T169.8 81.5 T166.7 65.8 Q166.7 57.3  169.8 50 T177.9 37.5 T190.1 29.2 T205 26.2 Q213 26.2  219.9 29 T232.1 37 T240.3 49.5 T243.3 65.8 Z M224.1 65.8 Q224.1 61.2  222.6 57.5 T218.5 51.1 T212.5 46.9 T205 45.5 Q201.1 45.5  197.7 46.9 T191.7 51 T187.6 57.4 T186.1 65.8 Q186.1 70.2  187.6 73.9 T191.6 80.3 T197.6 84.6 T205 86.2 Q209 86.2  212.4 84.7 T218.5 80.6 T222.5 74.2 T224.1 65.8 Z "/>
    <path d="M270.3 104 H251.2 V29 H255.9 L262.2 37.9 Q266.8 33.7  272.7 31.5 T284.8 29.2 H301.7 V48.2 H284.8 Q281.8 48.2  279.2 49.3 T274.5 52.4 T271.5 57 T270.3 62.7 V104 Z "/>
    <path d="M329.9 104 H310.8 V29 H315.4 L321.7 36.3 Q326.3 32.1  332.2 29.9 T344.4 27.6 Q351.3 27.6  357.4 30.1 T368 37.4 T375.1 48.1 T377.8 61.2 V104 H358.7 V61.2 Q358.7 58.2  357.6 55.6 T354.5 51 T349.9 47.9 T344.4 46.8 Q341.4 46.8  338.7 47.9 T334.1 51 T331 55.6 T329.9 61.2 V104 Z "/>
    <path d="M425.2 104 Q418.3 104  412.2 101.4 T401.5 94.2 T394.3 83.5 T391.7 70.5 V48.2 H382.3 V29.2 H391.7 V-0.8 H410.7 V29.2 H439.7 V48.2 H410.7 V70.5 Q410.7 73.5  411.8 76.1 T414.9 80.7 T419.5 83.8 T425.2 85 H439.7 V104 H425.2 Z "/>
    <path d="M529.1 65.8 Q529.1 74.2  526.1 81.5 T517.9 94 T505.8 102.3 T490.8 105.4 Q482.9 105.4  475.9 102.4 T463.8 94.1 T455.5 81.5 T452.5 65.8 Q452.5 57.3  455.5 50 T463.7 37.5 T475.9 29.2 T490.8 26.2 Q498.8 26.2  505.7 29 T517.9 37 T526.1 49.5 T529.1 65.8 Z M509.8 65.8 Q509.8 61.2  508.3 57.5 T504.2 51.1 T498.2 46.9 T490.8 45.5 Q486.9 45.5  483.4 46.9 T477.4 51 T473.3 57.4 T471.9 65.8 Q471.9 70.2  473.3 73.9 T477.3 80.3 T483.4 84.6 T490.8 86.2 Q494.7 86.2  498.1 84.7 T504.2 80.6 T508.3 74.2 T509.8 65.8 Z "/>
    <path d="M556.3 104 H537.2 V29 H541.8 L548.1 36.3 Q552.7 32.1  558.5 29.9 T570.8 27.6 Q577.6 27.6  583.7 30.1 T594.4 37.4 T601.5 48.1 T604.2 61.2 V104 H585.1 V61.2 Q585.1 58.2  583.9 55.6 T580.9 51 T576.3 47.9 T570.8 46.8 Q567.8 46.8  565.1 47.9 T560.5 51 T557.4 55.6 T556.3 61.2 V104 Z "/>
</svg>
