<svg xmlns="http://www.w3.org/2000/svg" viewBox="0 0 113.78 20">
    <path d="M9.45, 19.74 H5.68 V4.61 H0 V.83 H15.12 V4.61 H9.45 Z"/>
    <path d="M20.34, 19.74 h-3.6 V0 h3.6 V6.24 a4.17, 4.17, 0, 0, 1, 1.33 -.7,5.09,5.09,0,0,1,1.4-.2,6.13,6.13,0,0,1,2.45.49,6.44,6.44,0,0,1,2,1.36,6.66,6.66,0,0,1,1.34,2,6.17,6.17,0,0,1,.49,2.46v8.07H25.73V11.67h0a2.66,2.66,0,0,0-.21-1.05A2.89,2.89,0,0,0,25,9.76a2.78,2.78,0,0,0-.86-.58,2.61,2.61,0,0,0-1-.21,2.73,2.73,0,0,0-1.94.79,2.56,2.56,0,0,0-.58.86,2.66,2.66,0,0,0-.21,1.05Z"/>
    <path d="M45.55, 12.55
	 	A7.56, 7.56, 0, 0, 1, 45, 15.5
		a7.19, 7.19, 0, 0, 1-3.83, 3.93, 7.21, 7.21, 0, 0, 1-5.62,0
		A7.25,7.25,0,0,1,31.7,15.5
		a7.57,7.57,0,0,1-.57-2.95,7.72,7.72,0,0,1,.57-3,7.39,7.39,0,0,1,1.55-2.36,7.14,7.14,0,0,1,2.29-1.57,7,7,0,0,1,2.8-.56,7.33,7.33,0,0,1,2.82.53,6.85,6.85,0,0,1,2.29,1.52
		A7.15,7.15,0,0,1,45,9.49,7.91,7.91,0,0,1,45.55,12.55Zm-3.62,0A4.14,4.14,0,0,0,41.65,11a3.9,3.9,0,0,0-.77-1.22
		A3.56,3.56,0,0,0,39.74,9,3.74,3.74,0,0,0,37,9
		a3.41,3.41,0,0,0-1.13.78
		A3.88,3.88,0,0,0,35.06,11a4.35,4.35,0,0,0-.27,1.57,4.19,4.19,0,0,0,.27,1.52,3.94,3.94,0,0,0,.76,1.21,3.66,3.66,0,0,0,1.13.81,3.31,3.31,0,0,0,1.39.3,3.47,3.47,0,0,0,1.4-.28,3.41,3.41,0,0,0,1.14-.78,3.74,3.74,0,0,0,.77-1.21
		A4.18,4.18,0,0,0,41.93,12.55Z"/>
    <path d="M51.14,19.74H47.55V5.62h.87L49.6,7.29a6.31,6.31,0,0,1,2-1.22,6.42,6.42,0,0,1,2.29-.43h3.18V9.23H53.87a2.76,2.76,0,0,0-1.07.21,2.71,2.71,0,0,0-.87.58,2.88,2.88,0,0,0-.58.87A2.72,2.72,0,0,0,51.14,12Z"/>
    <path d="M62.32,19.74h-3.6V5.62h.87L60.78,7a6.34,6.34,0,0,1,4.27-1.65,6.11,6.11,0,0,1,2.44.49,6.34,6.34,0,0,1,3.35,3.38,6.18,6.18,0,0,1,.5,2.46v8.07h-3.6V11.67a2.66,2.66,0,0,0-.21-1.05A2.72,2.72,0,0,0,67,9.76a2.66,2.66,0,0,0-.86-.58,2.58,2.58,0,0,0-1-.21A2.76,2.76,0,0,0,64,9.18a2.69,2.69,0,0,0-1.45,1.44,2.66,2.66,0,0,0-.21,1.05Z"/>
    <path d="M80.79,19.74a6.1,6.1,0,0,1-2.45-.5A6.41,6.41,0,0,1,75,15.87a6.1,6.1,0,0,1-.5-2.45V9.23H72.72V5.64h1.75V0h3.59V5.64h5.46V9.23H78.06v4.19a2.67,2.67,0,0,0,.21,1.06,2.71,2.71,0,0,0,.58.87,2.88,2.88,0,0,0,.87.58,2.56,2.56,0,0,0,1.07.22h2.73v3.59Z"/>
    <path d="M99.18,12.55a7.57,7.57,0,0,1-.57,2.95,7.47,7.47,0,0,1-1.54,2.36,7.35,7.35,0,0,1-2.29,1.57,7.19,7.19,0,0,1-5.61,0,7.22,7.22,0,0,1-3.85-3.93,7.75,7.75,0,0,1-.56-2.95,7.9,7.9,0,0,1,.56-3,7.39,7.39,0,0,1,1.55-2.36,7.18,7.18,0,0,1,2.3-1.57A6.9,6.9,0,0,1,92,5.08a7.28,7.28,0,0,1,2.81.53,6.75,6.75,0,0,1,2.29,1.52,7.15,7.15,0,0,1,1.54,2.36A7.91,7.91,0,0,1,99.18,12.55Zm-3.63,0A4.14,4.14,0,0,0,95.27,11a3.9,3.9,0,0,0-.77-1.22A3.56,3.56,0,0,0,93.36,9,3.62,3.62,0,0,0,92,8.71,3.55,3.55,0,0,0,90.58,9a3.36,3.36,0,0,0-1.14.78A3.88,3.88,0,0,0,88.68,11a4.35,4.35,0,0,0-.27,1.57,4.19,4.19,0,0,0,.27,1.52,3.94,3.94,0,0,0,.76,1.21,3.58,3.58,0,0,0,1.14.81,3.24,3.24,0,0,0,1.39.3,3.45,3.45,0,0,0,1.39-.28,3.41,3.41,0,0,0,1.14-.78,3.74,3.74,0,0,0,.77-1.21A4.18,4.18,0,0,0,95.55,12.55Z"/>
    <path d="M104.77,19.74h-3.6V5.62H102L103.22,7a6.34,6.34,0,0,1,4.27-1.65,6,6,0,0,1,2.44.49,6.32,6.32,0,0,1,3.36,3.38,6.17,6.17,0,0,1,.49,2.46v8.07h-3.6V11.67a2.66,2.66,0,0,0-.21-1.05,2.56,2.56,0,0,0-.58-.86,2.62,2.62,0,0,0-.85-.58A2.66,2.66,0,0,0,107.49,9a2.71,2.71,0,0,0-1.06.21,2.51,2.51,0,0,0-.87.58,2.56,2.56,0,0,0-.58.86,2.66,2.66,0,0,0-.21,1.05Z"/>
</svg>
