<svg xmlns="http://www.w3.org/2000/svg" xmlns:xlink="http://www.w3.org/1999/xlink" viewBox="0 0 100 100">
    
    <defs>
        <rect id="rect" width="10" height="16" x="45" y="1" class="light" opacity="1" rx="2" ry="2" transform="rotate(0 50 50)"/>
    </defs>
    
    <path d="
		M50 75
		A25 25 0 0 1 50 25
		A25 25 0 0 1 50 75 
        Z
	" class="light"/>
    <use xlink:href="#rect"/>
    <use transform="rotate(45 50 50)" xlink:href="#rect"/>
    <use transform="rotate(90 50 50)" xlink:href="#rect"/>
    <use transform="rotate(135 50 50)" xlink:href="#rect"/>
    <use transform="rotate(180 50 50)" xlink:href="#rect"/>
    <use transform="rotate(225 50 50)" xlink:href="#rect"/>
    <use transform="rotate(270 50 50)" xlink:href="#rect"/>
    <use transform="rotate(315 50 50)" xlink:href="#rect"/>
    <path class="dark" fill="red" d="
		M50 90
		A40 40 0 0 1 50 10
		A40 40 0 0 1 50 90
        Z
        M50 90
		A40 40 0 0 0 50 10
        A5 5 0 0 0 90 50
        A40 40 0 0 1 50 90
        Z
	"/>
</svg>
