<svg xmlns="http://www.w3.org/2000/svg" stroke="none" xmlns:xlink="http://www.w3.org/1999/xlink">
   
   <symbol id="gear" fill="none" draggable="false" viewBox="0 0 104 104">
            <path pointer-events="none" stroke-width="5" d="M42 90V101H62V90L72 86L80 94L94 80L86 72L90 62H101V42H90L86 32L94 24L80 10L72 18L62 14V3H42V14L32 18L24 10L11 24L18 32L14 42H3V62H14L18 72L11 80L24 94T32 86zM52 72A20 20 0 0 1 52 32A20 20 0 0 1 52 72z" />
    </symbol>
	<symbol id="night" viewBox="0 0 100 100">
		<defs>
			<rect fill="currentColor" stroke="none" id="rect" width="10" height="17" x="45" y="0" class="light" opacity="1" rx="2" ry="2" transform="rotate(0 50 50)"/>
		</defs>
		<path fill="currentColor" d="
			M50 75
			A25 25 0 0 1 50 25
			A25 25 0 0 1 50 75 
			Z
		" class="light"/>
		<use xlink:href="#rect"/>
		<use transform="rotate(45 50 50)" xlink:href="#rect"/>
		<use transform="rotate(90 50 50)" xlink:href="#rect"/>
		<use transform="rotate(135 50 50)" xlink:href="#rect"/>
		<use transform="rotate(180 50 50)" xlink:href="#rect"/>
		<use transform="rotate(225 50 50)" xlink:href="#rect"/>
		<use transform="rotate(270 50 50)" xlink:href="#rect"/>
		<use transform="rotate(315 50 50)" xlink:href="#rect"/>

		<path class="dark" d="
			M50 90
			A40 40 0 0 1 50 10
			A40 40 0 0 1 50 90
			Z
			M50 90
			A40 40 0 0 0 50 10
			A5 5 0 0 0 90 50
			A40 40 0 0 1 50 90
			Z
		"/>
	</symbol>
</svg>
